# xmcd CD database file
#
# Track frame offsets:
#	150
#	20025
#	35979
#	56647
#	72189
#	91434
#	112503
#	128954
#	144537
#	160674
#	182526
#	195958
#
# Disc length: 2902 seconds
#
# Revision: 0
# Processed by: cddbd v1.5.1PL0 Copyright (c) Steve Scherf et al.
# Submitted via: CDex 1.50beta10
#
DISCID=9f0b540c
DTITLE=Killerkouche - Ein Tag In Berlin
DYEAR=2004
DGENRE=Rock
TTITLE0=Lass uns aufstehen
TTITLE1=Ein Tag in Berlin
TTITLE2=Supermann
TTITLE3=C'mon
TTITLE4=Das geht vorbei
TTITLE5=Siempre hay sol
TTITLE6=Tagtraumer
TTITLE7=Alles falsch
TTITLE8=Die Zeit steht still
TTITLE9=Leben verbringen
TTITLE10=Fahr mit mir in den Urlaub
TTITLE11=Der Sommer ist jetzt vorbei
EXTD=YEAR: 2004
EXTT0=
EXTT1=
EXTT2=
EXTT3=
EXTT4=
EXTT5=
EXTT6=
EXTT7=
EXTT8=
EXTT9=
EXTT10=
EXTT11=
PLAYORDER=
